<svg xmlns="http://www.w3.org/2000/svg" viewBox="0 0 100 125"><path style="line-height:normal;-inkscape-font-specification:Sans;text-indent:0;text-align:start;text-decoration-line:none;text-transform:none;block-progression:tb;marker:none" d="M40.166 23.565c-5.203 0-9.468 4.266-9.468 9.468 0 4.569 3.3 8.4 7.62 9.27a.897.897 0 0 1 .687.635l7.264 25.827-.012-.022a.897.897 0 0 1 .064.166c.383 1.4.982 2.563 1.855 3.39.866.82 2.103 1.294 3.217 1.294h15.573c.391 0 .666.015.928.07.261.057.532.195.674.306.4.31.716.807 1.083 1.91a.897.897 0 0 1 .027.106l7.743 22.366a.897.897 0 0 1 .002.001c.29.845 1.322 1.348 2.166 1.056.843-.292 1.344-1.326 1.05-2.17l-7.772-22.429a.897.897 0 0 1-.01-.028c-.006-.017.002-.01-.002-.026-.49-1.455-1.177-2.628-2.229-3.444-1.037-.805-2.381-1.109-3.66-1.109H51.393c-.028 0-.057.005-.145-.001a1.162 1.162 0 0 1-.401-.112c-.27-.139-.28-.207-.34-.266l-.001-.002c-.267-.253-.519-.812-.752-1.482a.897.897 0 0 1-.196-.355l-3.94-13.98a.897.897 0 0 1 .863-1.139h29.095a.897.897 0 0 1 .013 0c.895.013 1.717-.8 1.717-1.695s-.822-1.708-1.717-1.695a.897.897 0 0 1-.013 0H45.05a.897.897 0 0 1-.862-.651l-1.62-5.722a.897.897 0 0 1 .577-1.095c3.751-1.259 6.488-4.813 6.488-8.974 0-5.202-4.266-9.468-9.468-9.468zm0 3.39a6.066 6.066 0 0 1 6.077 6.078 6.066 6.066 0 0 1-6.077 6.078 6.066 6.066 0 0 1-6.078-6.078 6.066 6.066 0 0 1 6.078-6.077zM36.77 56.738a1.697 1.697 0 0 0-.45.069.897.897 0 0 1-.026.006c-9.267 2.477-15.96 11.15-15.96 21.131 0 11.884 9.675 21.56 21.559 21.56 11.258 0 20.616-8.63 21.561-19.665a.897.897 0 0 1 .005-.036c.113-.906-.633-1.829-1.543-1.91-.91-.08-1.806.698-1.854 1.61a.897.897 0 0 1-.002.029c-.796 9.294-8.643 16.581-18.167 16.581-10.051 0-18.169-8.117-18.169-18.169 0-8.456 5.707-15.797 13.458-17.868a.897.897 0 0 1 .008-.004c.791-.203 1.361-1.043 1.259-1.853-.103-.81-.864-1.48-1.679-1.481z" color="#000" font-weight="400" font-family="Sans" overflow="visible"/></svg>