<svg xmlns="http://www.w3.org/2000/svg" viewBox="0 0 100 125" width="100" height="125"><g transform="translate(-.847 10.17)"><circle cx="50" cy="52" r="6"/><path d="M50 12c7.732 0 14 17.908 14 40s-6.268 40-14 40-14-17.908-14-40 6.268-40 14-40m0-4C38.183 8 32 30.135 32 52s6.183 44 18 44 18-22.135 18-44S61.817 8 50 8z"/><path d="M24.385 25.934c7.985 0 20.98 5.423 33.828 14.728 17.892 12.96 28.719 28.54 24.182 34.803-1.278 1.766-3.644 2.602-6.779 2.602-7.985 0-20.98-5.421-33.828-14.727C23.897 50.38 13.069 34.8 17.606 28.537c1.279-1.766 3.642-2.603 6.779-2.603m0-4c-5.733 0-8.613 2.314-10.02 4.257-2.311 3.19-3.557 9.167 3.636 19.519 4.817 6.932 12.432 14.344 21.439 20.869 13.189 9.553 27.051 15.487 36.175 15.487 5.733 0 8.613-2.313 10.019-4.255 2.312-3.191 3.558-9.168-3.635-19.52-4.816-6.933-12.431-14.344-21.439-20.869-13.191-9.554-27.052-15.488-36.175-15.488z"/><path d="M75.615 25.934c3.137 0 5.5.837 6.779 2.603C86.931 34.8 76.103 50.38 58.212 63.34 45.365 72.645 32.37 78.065 24.385 78.065c-3.136 0-5.501-.836-6.779-2.602-4.537-6.263 6.29-21.843 24.182-34.803 12.847-9.304 25.842-14.726 33.827-14.726m0-4c-9.123 0-22.984 5.935-36.175 15.488-9.009 6.525-16.623 13.937-21.439 20.869-7.192 10.352-5.946 16.328-3.635 19.52 1.405 1.941 4.285 4.255 10.019 4.255 9.124 0 22.985-5.935 36.175-15.487 9.008-6.525 16.622-13.938 21.439-20.869 7.192-10.352 5.946-16.328 3.635-19.52-1.405-1.942-4.285-4.256-10.019-4.256z"/><circle cx="82" cy="62" r="6"/><circle cx="18" cy="42" r="6"/></g></svg>