<svg xmlns="http://www.w3.org/2000/svg" viewBox="0 0 100 125"><path d="M80.942 22.458H26.464a2 2 0 0 0 0 4h54.478a2 2 0 0 0 0-4z"/><path d="M80.942 29.092h-56.31a4.64 4.64 0 0 1-4.634-4.634 4.64 4.64 0 0 1 4.634-4.634h56.31a2 2 0 0 0 0-4h-56.31c-4.76 0-8.634 3.874-8.634 8.634 0 .215.008.43.023.64a1.96 1.96 0 0 0-.023.308v61.39c0 .128.002.254.006.38a7.368 7.368 0 0 0-.006.297c0 4.761 3.873 8.634 8.634 8.634h10.086v10.433a2.002 2.002 0 0 0 3.2 1.6l5.553-4.164 5.29 4.14a1.995 1.995 0 0 0 2.107.222 2 2 0 0 0 1.124-1.798V96.108h28.95a2 2 0 0 0 2-2V31.092a2 2 0 0 0-2-2zM19.998 87.474l.005-.208c.002-.047.003-.095.001-.142a11.675 11.675 0 0 1-.006-.328V31.741a8.588 8.588 0 0 0 4.634 1.352h3.14V92.11h-3.14a4.641 4.641 0 0 1-4.634-4.635zm27.994 14.962l-3.263-2.554a2.002 2.002 0 0 0-2.433-.025l-3.578 2.684v-6.433h9.274v6.328zm30.95-10.328h-47.17V33.092h47.17v59.016z"/><path d="M45.948 56.762h7.233v16.16a2 2 0 0 0 4 0v-16.16h7.233a2 2 0 0 0 0-4h-7.233v-6.647a2 2 0 0 0-4 0v6.647h-7.233a2 2 0 0 0 0 4z"/></svg>