<svg xmlns="http://www.w3.org/2000/svg" width="800" height="355" viewBox="0 0 2834.646 1257.874"><g style="line-height:125%" font-weight="400" font-size="108.19" font-family="sans-serif" letter-spacing="23.931" word-spacing="0" fill="none" stroke="#000" stroke-width="20" stroke-linejoin="round"><path style="-inkscape-font-specification:'Fira Sans Condensed, Heavy Condensed';text-align:center" d="M543.649 213.156v200.098h15.58q19.473 0 30.671-9.25 11.685-9.25 17.04-31.159 5.356-21.908 5.356-60.857 0-38.462-5.843-59.883-5.355-21.909-16.553-30.185-11.198-8.764-29.698-8.764h-16.553zm5.355-69.133q48.199 0 83.74 13.632 35.54 13.145 57.449 50.146 22.395 37.001 22.395 104.187 0 94.45-42.843 132.912-42.357 37.975-116.36 37.975h-108.08V144.023h103.7zM1034.605 144.023l-9.737 68.16h-98.345v65.725h86.66v66.213h-86.66v69.62h105.161v69.134H828.178V144.023h206.427zM1257.51 134.286q37 0 65.239 11.684 28.237 11.685 50.633 34.08l-41.87 50.633q-30.672-26.777-62.805-26.777-16.066 0-23.856 7.303-7.79 6.816-7.79 18.5 0 8.764 4.382 14.606 4.382 5.356 15.093 11.198 10.71 5.355 33.593 14.119 32.62 12.658 52.094 27.264 19.474 14.118 28.724 34.566 9.737 20.448 9.737 50.147 0 32.619-16.066 57.936-15.58 25.316-45.277 39.435-29.699 13.632-70.108 13.632-75.95 0-126.582-50.633l47.225-52.094q36.027 32.133 73.028 32.133 18.5 0 26.777-8.764 8.763-8.763 8.763-22.882 0-15.093-9.737-24.343-9.737-9.737-37-19.96-53.555-20.449-74.977-45.279-20.934-24.83-20.934-62.317 0-31.646 15.579-55.015 16.066-23.856 43.817-36.514 27.75-12.658 62.318-12.658zM1591.478 144.023v338.852h-98.345V144.023h98.345zM1864.308 134.286q33.593 0 61.83 12.171 28.238 11.685 49.173 31.646l-46.251 48.685q-16.067-12.658-29.212-18.013-13.145-5.843-29.698-5.843-32.133 0-47.225 25.317-15.093 25.316-15.093 85.2 0 43.817 4.382 67.673 4.869 23.369 14.119 32.62 9.737 9.25 26.29 9.25 15.093 0 29.212-8.277V350.45h-28.238l-8.763-66.213h129.99V454.15q-25.316 18.014-57.449 28.238-31.646 9.737-61.83 9.737-77.41 0-113.438-44.304-35.54-44.304-35.54-134.86 0-58.422 19.96-98.344 20.448-40.41 55.989-60.37 36.027-19.961 81.792-19.961zM2348.981 482.875h-120.74l-60.857-251.705 1.46 11.685q5.355 36.027 8.277 66.212 2.92 30.185 2.92 66.7v107.108h-84.712V144.023h119.766l62.318 252.678-1.46-9.737q-5.843-38.462-8.764-66.212-2.921-27.751-2.921-65.24v-111.49h84.713v338.853z"/><path d="M384.268 742.856q37 0 65.238 11.685 28.238 11.684 50.633 34.08l-41.87 50.633q-30.671-26.777-62.804-26.777-16.066 0-23.856 7.302-7.79 6.816-7.79 18.501 0 8.763 4.382 14.606 4.382 5.355 15.093 11.197 10.71 5.356 33.593 14.12 32.62 12.657 52.094 27.263 19.474 14.119 28.724 34.567 9.737 20.448 9.737 50.146 0 32.62-16.066 57.936-15.58 25.317-45.278 39.435-29.698 13.632-70.107 13.632-75.95 0-126.583-50.633l47.225-52.093q36.028 32.132 73.029 32.132 18.5 0 26.777-8.763 8.763-8.764 8.763-22.882 0-15.093-9.737-24.343-9.737-9.737-37-19.961-53.555-20.448-74.977-45.278-20.935-24.83-20.935-62.318 0-31.645 15.58-55.014 16.066-23.856 43.817-36.515 27.75-12.658 62.318-12.658zM931.336 752.593l-97.371 213.243v125.61H735.62V966.322l-97.371-213.73h104.674l42.843 139.728 43.817-139.728h101.753zM1188.847 742.856q37 0 65.239 11.685 28.237 11.684 50.633 34.08l-41.87 50.633q-30.672-26.777-62.804-26.777-16.067 0-23.856 7.302-7.79 6.816-7.79 18.501 0 8.763 4.382 14.606 4.381 5.355 15.092 11.197 10.71 5.356 33.593 14.12 32.62 12.657 52.094 27.263 19.474 14.119 28.724 34.567 9.738 20.448 9.738 50.146 0 32.62-16.067 57.936-15.58 25.317-45.277 39.435-29.699 13.632-70.108 13.632-75.95 0-126.582-50.633l47.225-52.093q36.027 32.132 73.028 32.132 18.5 0 26.777-8.763 8.764-8.764 8.764-22.882 0-15.093-9.737-24.343-9.738-9.737-37.002-19.961-53.554-20.448-74.975-45.278-20.935-24.83-20.935-62.318 0-31.645 15.58-55.014 16.065-23.856 43.816-36.515 27.751-12.658 62.318-12.658zM1699.401 752.593l-9.737 73.029h-66.7v265.823h-98.344V825.622h-72.055v-73.029h246.836zM2052.602 752.593l-9.737 68.16h-98.345v65.726h86.66v66.212h-86.66v69.62h105.16v69.134h-203.505V752.593h206.427z"/><path d="M2538.152 1091.445h-94.937l-.487-121.714v-37.975q0-53.554 2.434-97.858l-31.646 222.98h-92.502l-34.08-222.98q4.868 70.108 4.868 119.28v16.553l-.973 121.714h-93.964l21.422-338.852h120.254l30.185 220.546 26.777-220.546h121.227l21.422 338.852z" style="-inkscape-font-specification:'Fira Sans Condensed, Heavy Condensed';text-align:center" font-weight="900" font-stretch="condensed" font-size="486.856" font-family="Fira Sans Condensed" letter-spacing="10" text-anchor="middle"/></g></svg>
