<svg xmlns="http://www.w3.org/2000/svg" width="800" height="400" viewBox="0 0 2834.646 1417.323"><text y="129.394" x="1018.341" style="line-height:125%" font-weight="400" font-size="141.732" font-family="sans-serif" letter-spacing="0" word-spacing="0"><tspan style="-inkscape-font-specification:'Fira Sans Condensed, Condensed'" y="129.394" x="1018.341" font-stretch="condensed" font-family="Fira Sans Condensed" letter-spacing="35.433">BUILDING</tspan></text><g style="line-height:125%" font-weight="400" font-family="sans-serif" letter-spacing="23.931" word-spacing="0" opacity=".558" fill="none" stroke="#000" stroke-width="3.855" stroke-linejoin="miter"><path d="M37.66 276.305h2769.764M37.66 658.982h2769.764M37.66 432.21h2769.764M37.66 933.319h2769.764M37.66 1323.082h2769.764M37.66 1089.224h2769.764"/><g opacity=".236"><path d="M2393.525 198.475v528M377.352 198.475v528M117.827 860.713v528M2645.964 860.713v528M2364.066 860.713v528M2283.523 860.713v528M1907.659 860.713v528M1827.116 860.713v528M1583.626 860.713v528M1503.084 860.713v528M1214.099 860.713v528M1133.556 860.713v528M865.082 860.713v528M784.54 860.713v528M473.93 860.713v528M393.388 860.713v528M787.151 225.322v528M672.675 225.322v528M1111.183 225.322v528M1003.794 225.322v528M1489.66 225.322v528M1368.097 225.322v528M1712.64 225.322v528M1591.076 225.322v528M2122.438 225.322v528M2000.875 225.322v528"/></g></g><g style="line-height:125%" font-weight="900" font-size="527.395" font-family="Fira Sans Condensed" letter-spacing="87.899" word-spacing="0" fill="#fff" stroke="#000" stroke-width="18.716" stroke-linecap="round" stroke-linejoin="round" font-stretch="condensed" text-anchor="middle"><path d="M493.874 283.856q52.213 0 90.712 14.767 38.5 14.24 62.233 54.322 24.26 40.082 24.26 112.863 0 102.314-46.41 143.978-45.884 41.137-126.048 41.137H381.539V283.856h112.335zm-5.801 74.89v216.76h16.877q21.095 0 33.226-10.02 12.657-10.021 18.458-33.754 5.802-23.733 5.802-65.924 0-41.665-6.329-64.87-5.801-23.733-17.931-32.699-12.13-9.493-32.172-9.493h-17.931zM1010.315 283.856l-10.548 73.836H893.234v71.198h93.876v71.726h-93.876v75.417h113.917v74.89H786.7V283.856h223.615zM1242.185 273.308q40.082 0 70.671 12.658 30.59 12.657 54.85 36.917l-45.357 54.85q-33.226-29.007-68.034-29.007-17.404 0-25.842 7.91-8.438 7.384-8.438 20.042 0 9.493 4.746 15.822 4.747 5.801 16.35 12.13 11.602 5.801 36.39 15.294 35.335 13.712 56.431 29.534 21.096 15.295 31.116 37.445 10.548 22.151 10.548 54.322 0 35.336-17.404 62.76-16.877 27.425-49.048 42.72-32.17 14.766-75.945 14.766-82.273 0-137.122-54.849l51.157-56.431q39.027 34.808 79.11 34.808 20.04 0 29.006-9.493 9.493-9.493 9.493-24.788 0-16.349-10.548-26.37-10.548-10.547-40.082-21.623-58.013-22.15-81.219-49.048-22.678-26.897-22.678-67.506 0-34.28 16.877-59.596 17.404-25.842 47.466-39.554 30.061-13.713 67.506-13.713zM1594.367 283.856v367.067h-106.534V283.856h106.534zM1880.32 273.308q36.39 0 66.979 13.185 30.589 12.658 53.267 34.28l-50.103 52.74Q1933.06 359.801 1918.82 354q-14.24-6.329-32.171-6.329-34.808 0-51.158 27.425-16.349 27.424-16.349 92.294 0 47.465 4.746 73.308 5.274 25.315 15.295 35.335 10.548 10.02 28.48 10.02 16.349 0 31.643-8.965v-69.616h-30.589l-9.493-71.726h140.815v184.061q-27.425 19.514-62.233 30.589-34.28 10.548-66.98 10.548-83.855 0-122.882-47.993-38.5-47.993-38.5-146.089 0-63.287 21.623-106.533 22.15-43.774 60.65-65.398 39.028-21.623 88.603-21.623zM2395.755 650.923h-130.794l-65.924-272.663 1.582 12.657q5.801 39.028 8.966 71.726 3.164 32.699 3.164 72.253v116.027h-91.767V283.856h129.74l67.506 273.718-1.582-10.548q-6.329-41.664-9.493-71.725-3.164-30.062-3.164-70.671V283.856h91.766v367.067zM266.366 932.552q40.083 0 70.671 12.658 30.59 12.657 54.85 36.918l-45.356 54.849q-33.226-29.007-68.034-29.007-17.404 0-25.843 7.91-8.438 7.384-8.438 20.042 0 9.493 4.746 15.822 4.747 5.801 16.35 12.13 11.602 5.801 36.39 15.294 35.335 13.713 56.431 29.535 21.096 15.294 31.117 37.445 10.548 22.15 10.548 54.321 0 35.336-17.405 62.76-16.876 27.425-49.047 42.72-32.171 14.766-75.945 14.766-82.274 0-137.123-54.849l51.157-56.431q39.028 34.808 79.11 34.808 20.04 0 29.006-9.493 9.493-9.493 9.493-24.788 0-16.349-10.547-26.37-10.548-10.547-40.082-21.623-58.014-22.15-81.22-49.047-22.677-26.897-22.677-67.507 0-34.28 16.876-59.596 17.404-25.842 47.466-39.554 30.061-13.713 67.506-13.713zM792.309 943.1l-105.48 231v136.068H580.297v-135.541L474.816 943.1h113.39l46.412 151.363L682.083 943.1H792.31zM1004.583 932.552q40.082 0 70.67 12.658 30.59 12.657 54.85 36.918l-45.356 54.849q-33.226-29.007-68.034-29.007-17.404 0-25.843 7.91-8.438 7.384-8.438 20.042 0 9.493 4.747 15.822 4.746 5.801 16.349 12.13 11.603 5.801 36.39 15.294 35.336 13.713 56.431 29.535 21.096 15.294 31.117 37.445 10.548 22.15 10.548 54.321 0 35.336-17.404 62.76-16.877 27.425-49.048 42.72-32.171 14.766-75.945 14.766-82.274 0-137.123-54.849l51.157-56.431q39.028 34.808 79.11 34.808 20.04 0 29.006-9.493 9.494-9.493 9.494-24.788 0-16.349-10.548-26.37-10.548-10.547-40.082-21.623-58.014-22.15-81.22-49.047-22.677-26.897-22.677-67.507 0-34.28 16.876-59.596 17.404-25.842 47.466-39.554 30.062-13.713 67.507-13.713zM1490.97 943.1l-10.548 79.11h-72.253v287.957h-106.534V1022.21h-78.054V943.1h267.39zM1817.203 943.1l-10.548 73.836H1700.12v71.198h93.876v71.726h-93.876v75.417h113.917v74.89h-220.45V943.1h223.615zM2286.804 1310.168h-102.842l-.527-131.85v-41.136q0-58.014 2.637-106.007l-34.28 241.547h-100.206l-36.918-241.547q5.274 75.945 5.274 129.212v17.932l-1.055 131.849H1917.1l23.206-367.068h130.266l32.699 238.91 29.006-238.91H2263.6l23.205 367.067zM2515.007 932.552q40.082 0 70.671 12.658 30.589 12.657 54.85 36.918l-45.357 54.849q-33.226-29.007-68.034-29.007-17.404 0-25.842 7.91-8.439 7.384-8.439 20.042 0 9.493 4.747 15.822 4.747 5.801 16.35 12.13 11.602 5.801 36.39 15.294 35.335 13.713 56.43 29.535 21.097 15.294 31.117 37.445 10.548 22.15 10.548 54.321 0 35.336-17.404 62.76-16.877 27.425-49.048 42.72-32.17 14.766-75.945 14.766-82.273 0-137.122-54.849l51.157-56.431q39.027 34.808 79.11 34.808 20.04 0 29.006-9.493 9.493-9.493 9.493-24.788 0-16.349-10.548-26.37-10.548-10.547-40.082-21.623-58.013-22.15-81.219-49.047-22.678-26.897-22.678-67.507 0-34.28 16.877-59.596 17.404-25.842 47.466-39.554 30.061-13.713 67.506-13.713z" style="-inkscape-font-specification:'Fira Sans Condensed, Heavy Condensed';text-align:center"/></g><text style="line-height:125%" x="1388.87" y="-1000.197" font-weight="400" font-size="68.071" font-family="sans-serif" letter-spacing="0" word-spacing="0" fill="#fff" stroke="#000" stroke-width="18.716" stroke-linecap="round" stroke-linejoin="round"><tspan x="1432.82" y="-1000.197" style="-inkscape-font-specification:'Fira Sans Condensed, Heavy Condensed';text-align:center" font-weight="900" font-stretch="condensed" font-size="527.395" font-family="Fira Sans Condensed" letter-spacing="87.899" text-anchor="middle">DESIGN</tspan><tspan x="1432.819" y="-340.952" style="-inkscape-font-specification:'Fira Sans Condensed, Heavy Condensed';text-align:center" font-weight="900" font-stretch="condensed" font-size="527.395" font-family="Fira Sans Condensed" letter-spacing="87.899" text-anchor="middle">SYSTEMS</tspan></text></svg>